<svg width="36" height="36" viewBox="0 0 36 36" fill="none" xmlns="http://www.w3.org/2000/svg">
<path d="M18.4336 6.33333C19.9807 6.33333 21.4645 6.94791 22.5584 8.04187C23.6524 9.13583 24.267 10.6196 24.267 12.1667C24.267 13.7138 23.6524 15.1975 22.5584 16.2915C21.4645 17.3854 19.9807 18 18.4336 18C16.8865 18 15.4028 17.3854 14.3088 16.2915C13.2149 15.1975 12.6003 13.7138 12.6003 12.1667C12.6003 10.6196 13.2149 9.13583 14.3088 8.04187C15.4028 6.94791 16.8865 6.33333 18.4336 6.33333ZM18.4336 20.9167C24.8795 20.9167 30.1003 23.5271 30.1003 26.75V29.6667H6.76697V26.75C6.76697 23.5271 11.9878 20.9167 18.4336 20.9167Z" fill="white"/>
</svg>
